# xmcd
# 
# Track frame offsets:
#     183
#     33208
#     54083
#     78578
#     110355
#     152933
#     190120
# 
# Disc length: 2839
# 
# Revision: 1
# Processed by: cddbd v1.5.2PL0 Copyright (c) Steve Scherf et al.
# Submitted via: BonkEnc v1.0.6
# 
DISCID=4b0b1507
DTITLE=John Mayall - Night Riding
DYEAR=0
DGENRE=Blues
TTITLE0=The Law Must Change
TTITLE1=Saw Mill Gulch Road
TTITLE2=I'm Gonna Fight For You  J.B.
TTITLE3=So Hard To Share
TTITLE4=California
TTITLE5=Thoughts About Roxanne
TTITLE6=Room To Move
EXTD=
EXTT0=
EXTT1=
EXTT2=
EXTT3=
EXTT4=
EXTT5=
EXTT6=
PLAYORDER=
